<svg xmlns="http://www.w3.org/2000/svg" width="24" height="24" viewBox="0 0 24 24"><path d="M11 1a1.0001 1.0001 0 0 0-1 1v1H3a1.0001 1.0001 0 0 0-1 1v4a1.0001 1.0001 0 0 0 1 1h7v3H5a2.0002 2.0002 0 0 0-2 2v7a2.0002 2.0002 0 0 0 2 2h14a2.0002 2.0002 0 0 0 2-2v-7a2.0002 2.0002 0 0 0-2-2h-5V9h7a1.0001 1.0001 0 0 0 1-1V4a1.0001 1.0001 0 0 0-1-1h-7V2a1.0001 1.0001 0 0 0-1-1h-2zM6 14h4v2H7l5 4 5-4h-3v-2h4a1.0001 1.0001 0 0 1 1 1v5a1.0001 1.0001 0 0 1-1 1H6a1.0001 1.0001 0 0 1-1-1v-5a1.0001 1.0001 0 0 1 1-1z" style="line-height:normal;font-variant-ligatures:normal;font-variant-position:normal;font-variant-caps:normal;font-variant-numeric:normal;font-variant-alternates:normal;font-feature-settings:normal;text-indent:0;text-align:start;text-decoration-line:none;text-decoration-style:solid;text-decoration-color:#000000;text-transform:none;text-orientation:mixed;shape-padding:0;isolation:auto;mix-blend-mode:normal" color="#000" font-family="sans-serif" white-space="normal" overflow="visible" solid-color="#000000" fill="#fff"/></svg>