<svg xmlns="http://www.w3.org/2000/svg" viewBox="0 0 44 44" height="44" width="44"><g transform="translate(-2 -268.65)"><circle cx="24" cy="290.64999" r="17" fill="#f0f0f0"/><path style="line-height:normal;font-variant-ligatures:normal;font-variant-position:normal;font-variant-caps:normal;font-variant-numeric:normal;font-variant-alternates:normal;font-feature-settings:normal;text-indent:0;text-align:start;text-decoration-line:none;text-decoration-style:solid;text-decoration-color:#000000;text-transform:none;text-orientation:mixed;shape-padding:0;isolation:auto;mix-blend-mode:normal" d="M13 288.64998a2.0002 2.0002 0 0 0-2 2v13a2.0002 2.0002 0 0 0 2 2h22a2.0002 2.0002 0 0 0 2-2v-13a2.0002 2.0002 0 0 0-2-2zm3 3h16a2.0002 2.0002 0 0 1 2 2v7a2.0002 2.0002 0 0 1-2 2H16a2.0002 2.0002 0 0 1-2-2v-7a2.0002 2.0002 0 0 1 2-2z" color="#000" font-family="sans-serif" white-space="normal" overflow="visible" solid-color="#000000" fill="#6f6f6f"/><path style="line-height:normal;font-variant-ligatures:normal;font-variant-position:normal;font-variant-caps:normal;font-variant-numeric:normal;font-variant-alternates:normal;font-feature-settings:normal;text-indent:0;text-align:start;text-decoration-line:none;text-decoration-style:solid;text-decoration-color:#000000;text-transform:none;text-orientation:mixed;shape-padding:0;isolation:auto;mix-blend-mode:normal" d="M12 276.65039a2.0002 2.0002 0 0 0-2 2v4a2.0002 2.0002 0 0 0 2 2h24a2.0002 2.0002 0 0 0 2-2v-4a2.0002 2.0002 0 0 0-2-2z" color="#000" font-family="sans-serif" white-space="normal" overflow="visible" solid-color="#000000" fill="#eb4c4c"/><path style="line-height:normal;font-variant-ligatures:normal;font-variant-position:normal;font-variant-caps:normal;font-variant-numeric:normal;font-variant-alternates:normal;font-feature-settings:normal;text-indent:0;text-align:start;text-decoration-line:none;text-decoration-style:solid;text-decoration-color:#000000;text-transform:none;text-orientation:mixed;shape-padding:0;isolation:auto;mix-blend-mode:normal" d="M22 274.64998a1.0001 1.0001 0 0 0-1 1v19a1.0001 1.0001 0 0 0 1 1h4a1.0001 1.0001 0 0 0 1-1v-19a1.0001 1.0001 0 0 0-1-1z" color="#000" font-family="sans-serif" white-space="normal" overflow="visible" solid-color="#000000" fill="#b2b2b2"/><path d="M24 300.64998l-7-6h14z" fill="#515151" fill-rule="evenodd"/></g></svg>